<svg width="72" height="72" viewBox="0 0 72 72" fill="none" xmlns="http://www.w3.org/2000/svg">
<g clip-path="url(#clip0_4985_26090)">
<mask id="mask0_4985_26090" style="mask-type:luminance" maskUnits="userSpaceOnUse" x="0" y="0" width="72" height="72">
<path d="M72 0H0V72H72V0Z" fill="white"/>
</mask>
<g mask="url(#mask0_4985_26090)">
<mask id="mask1_4985_26090" style="mask-type:luminance" maskUnits="userSpaceOnUse" x="-1" y="-1" width="74" height="74">
<path d="M-0.540039 -0.539993H72.54V72.54H-0.540039V-0.539993Z" fill="white"/>
</mask>
<g mask="url(#mask1_4985_26090)">
<path d="M26.6271 24.7544C27.0179 36.4708 36.8328 45.652 48.5492 45.2612C60.2656 44.8704 69.4468 35.0555 69.056 23.3391C68.6651 11.6227 58.8503 2.44148 47.1339 2.83231C35.4174 3.22315 26.2363 13.038 26.6271 24.7544Z" fill="url(#paint0_linear_4985_26090)"/>
<path d="M26.6271 24.7544C27.0179 36.4708 36.8328 45.652 48.5492 45.2612C60.2656 44.8704 69.4468 35.0555 69.056 23.3391C68.6651 11.6227 58.8503 2.44148 47.1339 2.83231C35.4174 3.22315 26.2363 13.038 26.6271 24.7544Z" fill="url(#paint1_radial_4985_26090)"/>
<path d="M31.1731 24.6028C30.866 15.397 38.0797 7.68535 47.2855 7.37826C56.4913 7.07118 64.2029 14.285 64.51 23.4907C64.8171 32.6965 57.6033 40.4082 48.3976 40.7152C39.1918 41.0223 31.4801 33.8085 31.1731 24.6028ZM26.6271 24.7544C27.0179 36.4708 36.8328 45.652 48.5492 45.2612C60.2656 44.8704 69.4468 35.0555 69.056 23.3391C68.6651 11.6227 58.8503 2.44148 47.1339 2.83231C35.4174 3.22315 26.2363 13.038 26.6271 24.7544Z" fill="url(#paint2_linear_4985_26090)"/>
<path d="M2.93482 39.263C3.16108 50.9838 12.846 60.3019 24.5668 60.0756C36.2875 59.8494 45.6057 50.1644 45.3794 38.4437C45.1531 26.7229 35.4682 17.4048 23.7474 17.631C12.0267 17.8573 2.70856 27.5422 2.93482 39.263Z" fill="url(#paint3_linear_4985_26090)"/>
<path d="M7.48246 39.1752C7.30468 29.9661 14.626 22.3565 23.8352 22.1787C33.0444 22.0009 40.654 29.3223 40.8318 38.5314C41.0095 47.7406 33.6882 55.3502 24.479 55.528C15.2698 55.7058 7.66023 48.3844 7.48246 39.1752ZM2.93482 39.263C3.16108 50.9838 12.846 60.3019 24.5668 60.0756C36.2875 59.8494 45.6057 50.1644 45.3794 38.4437C45.1531 26.7229 35.4682 17.4048 23.7474 17.631C12.0267 17.8573 2.70856 27.5422 2.93482 39.263Z" fill="url(#paint4_linear_4985_26090)"/>
<path d="M7.48246 39.1752C7.30468 29.9661 14.626 22.3565 23.8352 22.1787C33.0444 22.0009 40.654 29.3223 40.8318 38.5314C41.0095 47.7406 33.6882 55.3502 24.479 55.528C15.2698 55.7058 7.66023 48.3844 7.48246 39.1752ZM2.93482 39.263C3.16108 50.9838 12.846 60.3019 24.5668 60.0756C36.2875 59.8494 45.6057 50.1644 45.3794 38.4437C45.1531 26.7229 35.4682 17.4048 23.7474 17.631C12.0267 17.8573 2.70856 27.5422 2.93482 39.263Z" fill="url(#paint5_radial_4985_26090)"/>
<g opacity="0.9">
<path d="M49.731 48.6722L33.7044 65.4233C32.3734 66.8145 33.316 69.193 35.1983 69.193H67.2518C69.134 69.193 70.0766 66.8145 68.7456 65.4233L52.719 48.6722C52.3064 48.2409 51.7657 48.0254 51.225 48.0254C50.6843 48.0254 50.1436 48.2409 49.731 48.6722Z" fill="url(#paint6_linear_4985_26090)"/>
</g>
</g>
</g>
</g>
<defs>
<linearGradient id="paint0_linear_4985_26090" x1="36.9147" y1="6.53849" x2="59.1265" y2="41.9872" gradientUnits="userSpaceOnUse">
<stop stop-color="#FFA43D"/>
<stop offset="0.16" stop-color="#FFB321"/>
<stop offset="0.32" stop-color="#FFC205"/>
<stop offset="0.57" stop-color="#FFB321"/>
<stop offset="0.81" stop-color="#FFA43D"/>
<stop offset="0.9" stop-color="#FFA43D"/>
<stop offset="1" stop-color="#FFA43D"/>
</linearGradient>
<radialGradient id="paint1_radial_4985_26090" cx="0" cy="0" r="1" gradientUnits="userSpaceOnUse" gradientTransform="translate(31.639 42.0579) rotate(-1.91055) scale(21.826)">
<stop stop-color="#8E250B" stop-opacity="0.45"/>
<stop offset="0.05" stop-color="#8E250B" stop-opacity="0.45"/>
<stop offset="0.1" stop-color="#8E250B" stop-opacity="0.45"/>
<stop offset="0.45" stop-color="#8E250B" stop-opacity="0.325"/>
<stop offset="0.8" stop-color="#8E250B" stop-opacity="0.2"/>
<stop offset="0.9" stop-color="#8E250B" stop-opacity="0.1"/>
<stop offset="1" stop-color="#8E250B" stop-opacity="0"/>
</radialGradient>
<linearGradient id="paint2_linear_4985_26090" x1="41.782" y1="4.81029" x2="54.0558" y2="43.4115" gradientUnits="userSpaceOnUse">
<stop stop-color="#D96B08"/>
<stop offset="0.11" stop-color="#EC8722"/>
<stop offset="0.22" stop-color="#FFA43D"/>
<stop offset="0.27" stop-color="#FF9B2E"/>
<stop offset="0.32" stop-color="#FF921F"/>
<stop offset="0.54" stop-color="#EC7E13"/>
<stop offset="0.77" stop-color="#D96B08"/>
<stop offset="0.88" stop-color="#D96B08"/>
<stop offset="1" stop-color="#D96B08"/>
</linearGradient>
<linearGradient id="paint3_linear_4985_26090" x1="16.9922" y1="27.8139" x2="34.8492" y2="55.8001" gradientUnits="userSpaceOnUse">
<stop stop-color="#DC8B03"/>
<stop offset="0.5" stop-color="#D37805"/>
<stop offset="1" stop-color="#CA6407"/>
</linearGradient>
<linearGradient id="paint4_linear_4985_26090" x1="13.0518" y1="20.3856" x2="34.9436" y2="57.1586" gradientUnits="userSpaceOnUse">
<stop stop-color="#CA6407"/>
<stop offset="0.29" stop-color="#CA6407"/>
<stop offset="0.57" stop-color="#CA6407"/>
<stop offset="0.79" stop-color="#BC5D06"/>
<stop offset="1" stop-color="#AE5606"/>
</linearGradient>
<radialGradient id="paint5_radial_4985_26090" cx="0" cy="0" r="1" gradientUnits="userSpaceOnUse" gradientTransform="translate(34.4194 22.912) rotate(-1.1059) scale(10.0048)">
<stop stop-color="#FAB500" stop-opacity="0.75"/>
<stop offset="0.5" stop-color="#FAB500" stop-opacity="0.375"/>
<stop offset="1" stop-color="#FAB500" stop-opacity="0"/>
</radialGradient>
<linearGradient id="paint6_linear_4985_26090" x1="42.4046" y1="57.9865" x2="58.8058" y2="67.2822" gradientUnits="userSpaceOnUse">
<stop stop-color="#41B56F"/>
<stop offset="0.19" stop-color="#3BAC6A"/>
<stop offset="0.37" stop-color="#36A364"/>
<stop offset="0.56" stop-color="#2F975E"/>
<stop offset="0.75" stop-color="#298B57"/>
<stop offset="0.87" stop-color="#298B57"/>
<stop offset="1" stop-color="#298B57"/>
</linearGradient>
<clipPath id="clip0_4985_26090">
<rect width="72" height="72" fill="white"/>
</clipPath>
</defs>
</svg>
